<svg width="32" height="32" viewBox="0 0 32 32" fill="none" xmlns="http://www.w3.org/2000/svg">
<circle cx="16" cy="16" r="16" fill="#7A91DD"/>
<path d="M9.33329 27.5494V25.3334C9.33329 24.6261 9.61424 23.9478 10.1143 23.4477C10.6144 22.9476 11.2927 22.6667 12 22.6667H20C20.7072 22.6667 21.3855 22.9476 21.8856 23.4477C22.3857 23.9478 22.6666 24.6261 22.6666 25.3334V27.5494M29.3333 16C29.3333 23.3638 23.3638 29.3334 16 29.3334C8.63616 29.3334 2.66663 23.3638 2.66663 16C2.66663 8.63622 8.63616 2.66669 16 2.66669C23.3638 2.66669 29.3333 8.63622 29.3333 16ZM20 13.3334C20 15.5425 18.2091 17.3334 16 17.3334C13.7908 17.3334 12 15.5425 12 13.3334C12 11.1242 13.7908 9.33335 16 9.33335C18.2091 9.33335 20 11.1242 20 13.3334Z" stroke="#B1BDE1" stroke-width="2" stroke-linecap="round" stroke-linejoin="round"/>
<circle cx="16" cy="13.5153" r="4" fill="#B1BDE1"/>
<path d="M22.9963 26.0013C22.9963 28.2104 18.2091 30.5272 16 30.5272C13.7908 30.5272 8.93188 27.8303 8.93188 25.6211C8.93188 23.412 13.7908 22.5272 16 22.5272C18.2091 22.5272 22.9963 23.7921 22.9963 26.0013Z" fill="#B1BDE1"/>
</svg>
