<svg width="640" height="640" viewBox="0 0 640 640" fill="none" xmlns="http://www.w3.org/2000/svg">
<g filter="url(#filter0_d_2_120)">
<mask id="path-1-inside-1_2_120" fill="white">
<path d="M546.274 320C546.274 339.774 543.682 359.463 538.564 378.564L494.851 366.851C498.946 351.571 501.019 335.82 501.019 320H546.274Z"/>
</mask>
<path d="M546.274 320C546.274 339.774 543.682 359.463 538.564 378.564L494.851 366.851C498.946 351.571 501.019 335.82 501.019 320H546.274Z" fill="#C6D2FA" stroke="#9FADDB" stroke-width="2" mask="url(#path-1-inside-1_2_120)"/>
<mask id="path-2-inside-2_2_120" fill="white">
<path d="M538.564 378.564C533.446 397.664 525.846 416.012 515.959 433.137L476.767 410.509C484.677 396.809 490.757 382.131 494.851 366.851L538.564 378.564Z"/>
</mask>
<path d="M538.564 378.564C533.446 397.664 525.846 416.012 515.959 433.137L476.767 410.509C484.677 396.809 490.757 382.131 494.851 366.851L538.564 378.564Z" fill="#C6D2FA" stroke="#9FADDB" stroke-width="2" mask="url(#path-2-inside-2_2_120)"/>
<mask id="path-3-inside-3_2_120" fill="white">
<path d="M515.959 433.137C506.072 450.262 493.983 466.017 480 480L448 448C459.186 436.814 468.858 424.21 476.767 410.509L515.959 433.137Z"/>
</mask>
<path d="M515.959 433.137C506.072 450.262 493.983 466.017 480 480L448 448C459.186 436.814 468.858 424.21 476.767 410.509L515.959 433.137Z" fill="#C6D2FA" stroke="#9FADDB" stroke-width="2" mask="url(#path-3-inside-3_2_120)"/>
<mask id="path-4-inside-4_2_120" fill="white">
<path d="M480 480C466.017 493.983 450.262 506.072 433.137 515.959L410.51 476.767C424.21 468.858 436.814 459.186 448 448L480 480Z"/>
</mask>
<path d="M480 480C466.017 493.983 450.262 506.072 433.137 515.959L410.51 476.767C424.21 468.858 436.814 459.186 448 448L480 480Z" fill="#C6D2FA" stroke="#9FADDB" stroke-width="2" mask="url(#path-4-inside-4_2_120)"/>
<mask id="path-5-inside-5_2_120" fill="white">
<path d="M433.137 515.959C416.012 525.846 397.665 533.446 378.564 538.564L366.851 494.851C382.132 490.757 396.81 484.677 410.51 476.767L433.137 515.959Z"/>
</mask>
<path d="M433.137 515.959C416.012 525.846 397.665 533.446 378.564 538.564L366.851 494.851C382.132 490.757 396.81 484.677 410.51 476.767L433.137 515.959Z" fill="#C6D2FA" stroke="#9FADDB" stroke-width="2" mask="url(#path-5-inside-5_2_120)"/>
<mask id="path-6-inside-6_2_120" fill="white">
<path d="M378.564 538.564C359.463 543.682 339.774 546.274 320 546.274L320 501.02C335.819 501.02 351.571 498.946 366.851 494.852L378.564 538.564Z"/>
</mask>
<path d="M378.564 538.564C359.463 543.682 339.774 546.274 320 546.274L320 501.02C335.819 501.02 351.571 498.946 366.851 494.852L378.564 538.564Z" fill="#C6D2FA" stroke="#9FADDB" stroke-width="2" mask="url(#path-6-inside-6_2_120)"/>
<mask id="path-7-inside-7_2_120" fill="white">
<path d="M320 546.274C300.226 546.274 280.537 543.682 261.436 538.564L273.149 494.851C288.429 498.946 304.181 501.019 320 501.019L320 546.274Z"/>
</mask>
<path d="M320 546.274C300.226 546.274 280.537 543.682 261.436 538.564L273.149 494.851C288.429 498.946 304.181 501.019 320 501.019L320 546.274Z" fill="#C6D2FA" stroke="#9FADDB" stroke-width="2" mask="url(#path-7-inside-7_2_120)"/>
<mask id="path-8-inside-8_2_120" fill="white">
<path d="M261.436 538.564C242.335 533.446 223.988 525.846 206.863 515.959L229.49 476.767C243.19 484.677 257.868 490.757 273.149 494.851L261.436 538.564Z"/>
</mask>
<path d="M261.436 538.564C242.335 533.446 223.988 525.846 206.863 515.959L229.49 476.767C243.19 484.677 257.868 490.757 273.149 494.851L261.436 538.564Z" fill="#C6D2FA" stroke="#9FADDB" stroke-width="2" mask="url(#path-8-inside-8_2_120)"/>
<mask id="path-9-inside-9_2_120" fill="white">
<path d="M206.863 515.959C189.738 506.072 173.983 493.982 160 480L192 448C203.186 459.186 215.79 468.857 229.49 476.767L206.863 515.959Z"/>
</mask>
<path d="M206.863 515.959C189.738 506.072 173.983 493.982 160 480L192 448C203.186 459.186 215.79 468.857 229.49 476.767L206.863 515.959Z" fill="#C6D2FA" stroke="#9FADDB" stroke-width="2" mask="url(#path-9-inside-9_2_120)"/>
<mask id="path-10-inside-10_2_120" fill="white">
<path d="M160 480C146.017 466.017 133.928 450.262 124.041 433.137L163.233 410.51C171.142 424.21 180.814 436.814 192 448L160 480Z"/>
</mask>
<path d="M160 480C146.017 466.017 133.928 450.262 124.041 433.137L163.233 410.51C171.142 424.21 180.814 436.814 192 448L160 480Z" fill="#C6D2FA" stroke="#9FADDB" stroke-width="2" mask="url(#path-10-inside-10_2_120)"/>
<mask id="path-11-inside-11_2_120" fill="white">
<path d="M124.041 433.137C114.153 416.012 106.554 397.665 101.436 378.564L145.148 366.852C149.243 382.132 155.323 396.81 163.232 410.51L124.041 433.137Z"/>
</mask>
<path d="M124.041 433.137C114.153 416.012 106.554 397.665 101.436 378.564L145.148 366.852C149.243 382.132 155.323 396.81 163.232 410.51L124.041 433.137Z" fill="#C6D2FA" stroke="#9FADDB" stroke-width="2" mask="url(#path-11-inside-11_2_120)"/>
<mask id="path-12-inside-12_2_120" fill="white">
<path d="M101.436 378.564C96.3176 359.464 93.7255 339.774 93.7255 320L138.98 320C138.98 335.82 141.054 351.571 145.148 366.851L101.436 378.564Z"/>
</mask>
<path d="M101.436 378.564C96.3176 359.464 93.7255 339.774 93.7255 320L138.98 320C138.98 335.82 141.054 351.571 145.148 366.851L101.436 378.564Z" fill="#C6D2FA" stroke="#9FADDB" stroke-width="2" mask="url(#path-12-inside-12_2_120)"/>
<mask id="path-13-inside-13_2_120" fill="white">
<path d="M93.7256 320C93.7256 300.226 96.3177 280.537 101.436 261.436L145.149 273.149C141.054 288.429 138.98 304.181 138.98 320L93.7256 320Z"/>
</mask>
<path d="M93.7256 320C93.7256 300.226 96.3177 280.537 101.436 261.436L145.149 273.149C141.054 288.429 138.98 304.181 138.98 320L93.7256 320Z" fill="#C6D2FA" stroke="#9FADDB" stroke-width="2" mask="url(#path-13-inside-13_2_120)"/>
<mask id="path-14-inside-14_2_120" fill="white">
<path d="M101.436 261.436C106.554 242.336 114.153 223.988 124.041 206.863L163.232 229.491C155.323 243.191 149.243 257.868 145.149 273.149L101.436 261.436Z"/>
</mask>
<path d="M101.436 261.436C106.554 242.336 114.153 223.988 124.041 206.863L163.232 229.491C155.323 243.191 149.243 257.868 145.149 273.149L101.436 261.436Z" fill="#C6D2FA" stroke="#9FADDB" stroke-width="2" mask="url(#path-14-inside-14_2_120)"/>
<mask id="path-15-inside-15_2_120" fill="white">
<path d="M124.041 206.863C133.928 189.738 146.017 173.983 160 160L192 192C180.814 203.186 171.142 215.791 163.233 229.491L124.041 206.863Z"/>
</mask>
<path d="M124.041 206.863C133.928 189.738 146.017 173.983 160 160L192 192C180.814 203.186 171.142 215.791 163.233 229.491L124.041 206.863Z" fill="#C6D2FA" stroke="#9FADDB" stroke-width="2" mask="url(#path-15-inside-15_2_120)"/>
<mask id="path-16-inside-16_2_120" fill="white">
<path d="M160 160C173.982 146.017 189.738 133.928 206.863 124.041L229.49 163.233C215.79 171.142 203.186 180.814 192 192L160 160Z"/>
</mask>
<path d="M160 160C173.982 146.017 189.738 133.928 206.863 124.041L229.49 163.233C215.79 171.142 203.186 180.814 192 192L160 160Z" fill="#C6D2FA" stroke="#9FADDB" stroke-width="2" mask="url(#path-16-inside-16_2_120)"/>
<mask id="path-17-inside-17_2_120" fill="white">
<path d="M206.863 124.04C223.988 114.153 242.335 106.554 261.436 101.436L273.148 145.148C257.868 149.243 243.19 155.323 229.49 163.232L206.863 124.04Z"/>
</mask>
<path d="M206.863 124.04C223.988 114.153 242.335 106.554 261.436 101.436L273.148 145.148C257.868 149.243 243.19 155.323 229.49 163.232L206.863 124.04Z" fill="#C6D2FA" stroke="#9FADDB" stroke-width="2" mask="url(#path-17-inside-17_2_120)"/>
<mask id="path-18-inside-18_2_120" fill="white">
<path d="M261.436 101.436C280.536 96.3176 300.225 93.7254 320 93.7254L320 138.98C304.18 138.98 288.429 141.054 273.149 145.148L261.436 101.436Z"/>
</mask>
<path d="M261.436 101.436C280.536 96.3176 300.225 93.7254 320 93.7254L320 138.98C304.18 138.98 288.429 141.054 273.149 145.148L261.436 101.436Z" fill="#C6D2FA" stroke="#9FADDB" stroke-width="2" mask="url(#path-18-inside-18_2_120)"/>
<mask id="path-19-inside-19_2_120" fill="white">
<path d="M320 93.7259C339.774 93.7259 359.463 96.318 378.564 101.436L366.851 145.149C351.571 141.054 335.819 138.981 320 138.981L320 93.7259Z"/>
</mask>
<path d="M320 93.7259C339.774 93.7259 359.463 96.318 378.564 101.436L366.851 145.149C351.571 141.054 335.819 138.981 320 138.981L320 93.7259Z" fill="#C6D2FA" stroke="#9FADDB" stroke-width="2" mask="url(#path-19-inside-19_2_120)"/>
<mask id="path-20-inside-20_2_120" fill="white">
<path d="M378.564 101.436C397.665 106.554 416.012 114.154 433.137 124.041L410.51 163.233C396.81 155.323 382.132 149.243 366.851 145.149L378.564 101.436Z"/>
</mask>
<path d="M378.564 101.436C397.665 106.554 416.012 114.154 433.137 124.041L410.51 163.233C396.81 155.323 382.132 149.243 366.851 145.149L378.564 101.436Z" fill="#C6D2FA" stroke="#9FADDB" stroke-width="2" mask="url(#path-20-inside-20_2_120)"/>
<mask id="path-21-inside-21_2_120" fill="white">
<path d="M433.137 124.04C450.262 133.928 466.017 146.017 480 160L448 192C436.814 180.813 424.21 171.142 410.51 163.232L433.137 124.04Z"/>
</mask>
<path d="M433.137 124.04C450.262 133.928 466.017 146.017 480 160L448 192C436.814 180.813 424.21 171.142 410.51 163.232L433.137 124.04Z" fill="#C6D2FA" stroke="#9FADDB" stroke-width="2" mask="url(#path-21-inside-21_2_120)"/>
<mask id="path-22-inside-22_2_120" fill="white">
<path d="M480 160C493.983 173.983 506.072 189.738 515.959 206.863L476.767 229.49C468.858 215.79 459.186 203.186 448 192L480 160Z"/>
</mask>
<path d="M480 160C493.983 173.983 506.072 189.738 515.959 206.863L476.767 229.49C468.858 215.79 459.186 203.186 448 192L480 160Z" fill="#C6D2FA" stroke="#9FADDB" stroke-width="2" mask="url(#path-22-inside-22_2_120)"/>
<mask id="path-23-inside-23_2_120" fill="white">
<path d="M515.959 206.863C525.846 223.988 533.446 242.335 538.564 261.436L494.851 273.148C490.757 257.868 484.677 243.19 476.767 229.49L515.959 206.863Z"/>
</mask>
<path d="M515.959 206.863C525.846 223.988 533.446 242.335 538.564 261.436L494.851 273.148C490.757 257.868 484.677 243.19 476.767 229.49L515.959 206.863Z" fill="#C6D2FA" stroke="#9FADDB" stroke-width="2" mask="url(#path-23-inside-23_2_120)"/>
<mask id="path-24-inside-24_2_120" fill="white">
<path d="M538.564 261.436C543.682 280.536 546.274 300.226 546.274 320L501.019 320C501.019 304.18 498.946 288.429 494.851 273.149L538.564 261.436Z"/>
</mask>
<path d="M538.564 261.436C543.682 280.536 546.274 300.226 546.274 320L501.019 320C501.019 304.18 498.946 288.429 494.851 273.149L538.564 261.436Z" fill="#C6D2FA" stroke="#9FADDB" stroke-width="2" mask="url(#path-24-inside-24_2_120)"/>
<mask id="path-25-inside-25_2_120" fill="white">
<path d="M501.019 320C501.019 351.776 492.655 382.991 476.767 410.51L432.872 385.167C444.312 365.354 450.334 342.878 450.334 320H501.019Z"/>
</mask>
<path d="M501.019 320C501.019 351.776 492.655 382.991 476.767 410.51L432.872 385.167C444.312 365.354 450.334 342.878 450.334 320H501.019Z" fill="#C6D2FA" stroke="#9FADDB" stroke-width="2" mask="url(#path-25-inside-25_2_120)"/>
<mask id="path-26-inside-26_2_120" fill="white">
<path d="M476.767 410.51C460.88 438.028 438.028 460.88 410.51 476.767L385.167 432.873C404.98 421.433 421.433 404.98 432.872 385.167L476.767 410.51Z"/>
</mask>
<path d="M476.767 410.51C460.88 438.028 438.028 460.88 410.51 476.767L385.167 432.873C404.98 421.433 421.433 404.98 432.872 385.167L476.767 410.51Z" fill="#C6D2FA" stroke="#9FADDB" stroke-width="2" mask="url(#path-26-inside-26_2_120)"/>
<mask id="path-27-inside-27_2_120" fill="white">
<path d="M410.509 476.767C382.991 492.655 351.775 501.019 320 501.019L320 450.334C342.878 450.334 365.353 444.312 385.167 432.873L410.509 476.767Z"/>
</mask>
<path d="M410.509 476.767C382.991 492.655 351.775 501.019 320 501.019L320 450.334C342.878 450.334 365.353 444.312 385.167 432.873L410.509 476.767Z" fill="#C6D2FA" stroke="#9FADDB" stroke-width="2" mask="url(#path-27-inside-27_2_120)"/>
<mask id="path-28-inside-28_2_120" fill="white">
<path d="M320 501.019C288.224 501.019 257.009 492.655 229.49 476.767L254.833 432.873C274.646 444.312 297.121 450.334 320 450.334L320 501.019Z"/>
</mask>
<path d="M320 501.019C288.224 501.019 257.009 492.655 229.49 476.767L254.833 432.873C274.646 444.312 297.121 450.334 320 450.334L320 501.019Z" fill="#C6D2FA" stroke="#9FADDB" stroke-width="2" mask="url(#path-28-inside-28_2_120)"/>
<mask id="path-29-inside-29_2_120" fill="white">
<path d="M229.49 476.767C201.972 460.88 179.12 438.028 163.233 410.51L207.128 385.167C218.567 404.98 235.02 421.433 254.833 432.873L229.49 476.767Z"/>
</mask>
<path d="M229.49 476.767C201.972 460.88 179.12 438.028 163.233 410.51L207.128 385.167C218.567 404.98 235.02 421.433 254.833 432.873L229.49 476.767Z" fill="#C6D2FA" stroke="#9FADDB" stroke-width="2" mask="url(#path-29-inside-29_2_120)"/>
<mask id="path-30-inside-30_2_120" fill="white">
<path d="M163.233 410.51C147.345 382.991 138.981 351.776 138.981 320L189.666 320C189.666 342.878 195.688 365.354 207.128 385.167L163.233 410.51Z"/>
</mask>
<path d="M163.233 410.51C147.345 382.991 138.981 351.776 138.981 320L189.666 320C189.666 342.878 195.688 365.354 207.128 385.167L163.233 410.51Z" fill="#C6D2FA" stroke="#9FADDB" stroke-width="2" mask="url(#path-30-inside-30_2_120)"/>
<mask id="path-31-inside-31_2_120" fill="white">
<path d="M138.98 320C138.98 288.224 147.345 257.009 163.232 229.49L207.127 254.833C195.688 274.646 189.666 297.122 189.666 320L138.98 320Z"/>
</mask>
<path d="M138.98 320C138.98 288.224 147.345 257.009 163.232 229.49L207.127 254.833C195.688 274.646 189.666 297.122 189.666 320L138.98 320Z" fill="#C6D2FA" stroke="#9FADDB" stroke-width="2" mask="url(#path-31-inside-31_2_120)"/>
<mask id="path-32-inside-32_2_120" fill="white">
<path d="M163.232 229.49C179.12 201.972 201.972 179.12 229.49 163.233L254.833 207.127C235.02 218.567 218.566 235.02 207.127 254.833L163.232 229.49Z"/>
</mask>
<path d="M163.232 229.49C179.12 201.972 201.972 179.12 229.49 163.233L254.833 207.127C235.02 218.567 218.566 235.02 207.127 254.833L163.232 229.49Z" fill="#C6D2FA" stroke="#9FADDB" stroke-width="2" mask="url(#path-32-inside-32_2_120)"/>
<mask id="path-33-inside-33_2_120" fill="white">
<path d="M229.49 163.233C257.009 147.345 288.224 138.981 320 138.981L320 189.666C297.122 189.666 274.646 195.688 254.833 207.128L229.49 163.233Z"/>
</mask>
<path d="M229.49 163.233C257.009 147.345 288.224 138.981 320 138.981L320 189.666C297.122 189.666 274.646 195.688 254.833 207.128L229.49 163.233Z" fill="#C6D2FA" stroke="#9FADDB" stroke-width="2" mask="url(#path-33-inside-33_2_120)"/>
<mask id="path-34-inside-34_2_120" fill="white">
<path d="M320 138.981C351.775 138.981 382.991 147.345 410.51 163.233L385.167 207.128C365.354 195.688 342.878 189.666 320 189.666L320 138.981Z"/>
</mask>
<path d="M320 138.981C351.775 138.981 382.991 147.345 410.51 163.233L385.167 207.128C365.354 195.688 342.878 189.666 320 189.666L320 138.981Z" fill="#C6D2FA" stroke="#9FADDB" stroke-width="2" mask="url(#path-34-inside-34_2_120)"/>
<mask id="path-35-inside-35_2_120" fill="white">
<path d="M410.51 163.233C438.028 179.12 460.88 201.972 476.767 229.49L432.872 254.833C421.433 235.02 404.98 218.567 385.167 207.128L410.51 163.233Z"/>
</mask>
<path d="M410.51 163.233C438.028 179.12 460.88 201.972 476.767 229.49L432.872 254.833C421.433 235.02 404.98 218.567 385.167 207.128L410.51 163.233Z" fill="#C6D2FA" stroke="#9FADDB" stroke-width="2" mask="url(#path-35-inside-35_2_120)"/>
<mask id="path-36-inside-36_2_120" fill="white">
<path d="M476.767 229.49C492.655 257.009 501.019 288.225 501.019 320L450.334 320C450.334 297.122 444.312 274.646 432.872 254.833L476.767 229.49Z"/>
</mask>
<path d="M476.767 229.49C492.655 257.009 501.019 288.225 501.019 320L450.334 320C450.334 297.122 444.312 274.646 432.872 254.833L476.767 229.49Z" fill="#C6D2FA" stroke="#9FADDB" stroke-width="2" mask="url(#path-36-inside-36_2_120)"/>
<mask id="path-37-inside-37_2_120" fill="white">
<path d="M432.872 385.167C421.433 404.98 404.98 421.434 385.167 432.873C365.354 444.312 342.878 450.334 320 450.334L320 403.414C334.642 403.414 349.026 399.56 361.707 392.239C374.387 384.918 384.917 374.388 392.238 361.707L432.872 385.167Z"/>
</mask>
<path d="M432.872 385.167C421.433 404.98 404.98 421.434 385.167 432.873C365.354 444.312 342.878 450.334 320 450.334L320 403.414C334.642 403.414 349.026 399.56 361.707 392.239C374.387 384.918 384.917 374.388 392.238 361.707L432.872 385.167Z" fill="#C6D2FA" stroke="#9FADDB" stroke-width="2" mask="url(#path-37-inside-37_2_120)"/>
<mask id="path-38-inside-38_2_120" fill="white">
<path d="M320 450.334C297.122 450.334 274.646 444.312 254.833 432.873C235.02 421.433 218.567 404.98 207.128 385.167L247.762 361.707C255.083 374.387 265.613 384.917 278.293 392.239C290.974 399.56 305.358 403.414 320 403.414V450.334Z"/>
</mask>
<path d="M320 450.334C297.122 450.334 274.646 444.312 254.833 432.873C235.02 421.433 218.567 404.98 207.128 385.167L247.762 361.707C255.083 374.387 265.613 384.917 278.293 392.239C290.974 399.56 305.358 403.414 320 403.414V450.334Z" fill="#C6D2FA" stroke="#9FADDB" stroke-width="2" mask="url(#path-38-inside-38_2_120)"/>
<mask id="path-39-inside-39_2_120" fill="white">
<path d="M207.127 385.167C195.688 365.354 189.666 342.878 189.666 320C189.666 297.122 195.688 274.646 207.127 254.833L247.762 278.293C240.441 290.974 236.586 305.358 236.586 320C236.586 334.642 240.441 349.026 247.762 361.707L207.127 385.167Z"/>
</mask>
<path d="M207.127 385.167C195.688 365.354 189.666 342.878 189.666 320C189.666 297.122 195.688 274.646 207.127 254.833L247.762 278.293C240.441 290.974 236.586 305.358 236.586 320C236.586 334.642 240.441 349.026 247.762 361.707L207.127 385.167Z" fill="#C6D2FA" stroke="#9FADDB" stroke-width="2" mask="url(#path-39-inside-39_2_120)"/>
<mask id="path-40-inside-40_2_120" fill="white">
<path d="M207.128 254.833C218.567 235.02 235.02 218.567 254.833 207.128C274.646 195.688 297.122 189.666 320 189.666L320 236.586C305.358 236.586 290.974 240.441 278.293 247.762C265.613 255.083 255.083 265.613 247.762 278.293L207.128 254.833Z"/>
</mask>
<path d="M207.128 254.833C218.567 235.02 235.02 218.567 254.833 207.128C274.646 195.688 297.122 189.666 320 189.666L320 236.586C305.358 236.586 290.974 240.441 278.293 247.762C265.613 255.083 255.083 265.613 247.762 278.293L207.128 254.833Z" fill="#C6D2FA" stroke="#9FADDB" stroke-width="2" mask="url(#path-40-inside-40_2_120)"/>
<mask id="path-41-inside-41_2_120" fill="white">
<path d="M320 189.666C342.879 189.666 365.354 195.688 385.167 207.128C404.98 218.567 421.433 235.02 432.873 254.833L392.239 278.293C384.917 265.613 374.388 255.083 361.707 247.762C349.027 240.441 334.642 236.586 320 236.586L320 189.666Z"/>
</mask>
<path d="M320 189.666C342.879 189.666 365.354 195.688 385.167 207.128C404.98 218.567 421.433 235.02 432.873 254.833L392.239 278.293C384.917 265.613 374.388 255.083 361.707 247.762C349.027 240.441 334.642 236.586 320 236.586L320 189.666Z" fill="#C6D2FA" stroke="#9FADDB" stroke-width="2" mask="url(#path-41-inside-41_2_120)"/>
<mask id="path-42-inside-42_2_120" fill="white">
<path d="M432.873 254.833C444.312 274.647 450.334 297.122 450.334 320C450.334 342.879 444.312 365.354 432.873 385.167L392.239 361.707C399.56 349.027 403.414 334.642 403.414 320C403.414 305.358 399.56 290.974 392.239 278.293L432.873 254.833Z"/>
</mask>
<path d="M432.873 254.833C444.312 274.647 450.334 297.122 450.334 320C450.334 342.879 444.312 365.354 432.873 385.167L392.239 361.707C399.56 349.027 403.414 334.642 403.414 320C403.414 305.358 399.56 290.974 392.239 278.293L432.873 254.833Z" fill="#C6D2FA" stroke="#9FADDB" stroke-width="2" mask="url(#path-42-inside-42_2_120)"/>
<path d="M361.205 320C361.205 342.756 342.757 361.203 320 361.203C297.243 361.203 278.795 342.756 278.795 320C278.795 297.244 297.243 278.796 320 278.796C342.757 278.796 361.205 297.244 361.205 320Z" fill="#C6D2FA" stroke="#9FADDB"/>
</g>
<defs>
<filter id="filter0_d_2_120" x="-16.0002" y="-16.0001" width="672" height="672" filterUnits="userSpaceOnUse" color-interpolation-filters="sRGB">
<feFlood flood-opacity="0" result="BackgroundImageFix"/>
<feColorMatrix in="SourceAlpha" type="matrix" values="0 0 0 0 0 0 0 0 0 0 0 0 0 0 0 0 0 0 127 0" result="hardAlpha"/>
<feOffset/>
<feGaussianBlur stdDeviation="8"/>
<feComposite in2="hardAlpha" operator="out"/>
<feColorMatrix type="matrix" values="0 0 0 0 0.159306 0 0 0 0 0.182412 0 0 0 0 0.258333 0 0 0 0.25 0"/>
<feBlend mode="normal" in2="BackgroundImageFix" result="effect1_dropShadow_2_120"/>
<feBlend mode="normal" in="SourceGraphic" in2="effect1_dropShadow_2_120" result="shape"/>
</filter>
</defs>
</svg>
